<svg width="19" height="15" viewBox="0 0 19 15" fill="none" xmlns="http://www.w3.org/2000/svg">
<path opacity="0.3" d="M18.3981 2.41424C17.7231 2.69988 17.0072 2.88741 16.2741 2.97059C17.0365 2.53272 17.623 1.84075 17.899 1.01501C17.1731 1.4267 16.3789 1.71675 15.5508 1.87262C14.8519 1.15923 13.8744 0.755145 12.8519 0.756841C10.8105 0.756841 9.15361 2.33885 9.15361 4.29036C9.15361 4.56766 9.18627 4.83792 9.25021 5.09598C6.17639 4.94838 3.45216 3.54211 1.62787 1.40376C1.30934 1.92505 1.12764 2.53272 1.12764 3.18052C1.12764 4.40598 1.78024 5.4878 2.77231 6.12164C2.18494 6.10443 1.61046 5.95284 1.09706 5.67959V5.72465C1.09706 7.43635 2.37189 8.8647 4.06278 9.19003C3.5182 9.33096 2.94722 9.35163 2.39305 9.25048C2.86384 10.6547 4.22998 11.6761 5.8475 11.7058C4.5821 12.6521 2.98781 13.2181 1.25483 13.2181C0.960153 13.2178 0.66574 13.2013 0.373047 13.1687C2.00943 14.171 3.95365 14.7568 6.04185 14.7568C12.8438 14.7568 16.5627 9.37094 16.5627 4.70032C16.5627 4.54754 16.5627 4.39477 16.5513 4.2431C17.2749 3.74271 17.8998 3.12348 18.3969 2.41424H18.3981Z" fill="white"/>
</svg>
